:SAMPLES-PER-SECOND 30
:FRAME-RANGE 1-663
:FULLY-SPECIFIED
:DEGREES
560
root  25.6137 38.7307 -125.274 -179.602 -29.1362 -179.915
RightUpLeg  -12.6905 -0.394131 -7.30638
RightLeg  24.3496 -1.68985 -1.19074
RightFoot  -11.4592 -0.0653426 12.3865
RightToes  2.91037e-010 0 -3.6325e-017
Spine  11.7993 -2.91813 10.6506
Spine1  4.44707 -3.12209 3.91675
HEad  21.9712 4.6133 -5.73418
LeftShoulder1  2.14969 -2.48081 -29.878
LeftArm  39.8538 -30.2972 -39.2866
LeftForeArm  -39.0678 -21.0104 -9.26133
LeftHand  0.619107 1.25788 -17.7052
RightShoulder  9.03301 14.8445 42.9042
RightArm  6.24694 -0.211283 14.2996
RightForeArm  -20.7137 44.8517 12.4113
RightHand  1.19924 2.01326 18.4927
LeftUpLeg  -32.0328 25.6538 2.49533
LeftLeg  43.0224 -6.34344 -5.92756
LeftFoot  -3.88165 0.576538 -8.47715
LeftToes  -4.9116e-011 5.71383e-011 -3.31847e-011
561
root  24.8072 38.8638 -125.893 -179.24 -29.3032 179.797
RightUpLeg  -10.3905 0.471965 -8.02315
RightLeg  22.5525 -2.81438 -1.79774
RightFoot  -11.8779 -0.0203461 12.9008
RightToes  2.91037e-010 0 -3.6325e-017
Spine  11.6646 -2.71033 10.1668
Spine1  4.50986 -2.93093 3.55892
HEad  22.1375 3.74351 -5.20364
LeftShoulder1  2.17628 -2.53445 -30.0016
LeftArm  41.2266 -29.7077 -37.9586
LeftForeArm  -40.1774 -21.6264 -8.71555
LeftHand  0.567677 1.42885 -17.011
RightShoulder  9.39293 15.3463 43.4525
RightArm  7.24985 0.0306895 14.7918
RightForeArm  -21.4009 44.4108 12.2655
RightHand  1.12403 1.925 17.5573
LeftUpLeg  -30.0877 24.938 4.11032
LeftLeg  29.8001 -6.5305 -3.69853
LeftFoot  -1.35667 0.791251 -8.95314
LeftToes  -4.9116e-011 5.71383e-011 -3.31847e-011
562
root  23.9268 38.8902 -126.489 -179.175 -29.2903 179.729
RightUpLeg  -8.17729 1.44119 -8.74616
RightLeg  21.3023 -3.59258 -2.09248
RightFoot  -12.625 0.0671782 13.6235
RightToes  2.91037e-010 0 -3.6325e-017
Spine  11.6127 -2.58529 9.64682
Spine1  4.92765 -2.80156 3.26291
HEad  21.9162 3.35407 -4.96079
LeftShoulder1  2.06162 -2.2305 -29.9082
LeftArm  41.2061 -29.1803 -37.3643
LeftForeArm  -40.2842 -21.8398 -8.50678
LeftHand  0.550506 1.47095 -16.6976
RightShoulder  9.72563 15.7619 44.048
RightArm  7.9999 0.375765 15.1451
RightForeArm  -21.1583 43.7634 11.9911
RightHand  1.19049 2.2814 17.6997
LeftUpLeg  -27.0681 23.3313 6.16318
LeftLeg  17.1203 -7.69254 -2.33902
LeftFoot  2.11028 1.10674 -9.47861
LeftToes  -4.9116e-011 5.71383e-011 -3.31847e-011
563
root  22.9411 38.8022 -127.082 -179.399 -29.1752 179.919
RightUpLeg  -6.04185 2.5187 -9.42031
RightLeg  20.6847 -4.27931 -2.24666
RightFoot  -13.7283 0.212448 14.6198
RightToes  2.91037e-010 0 -3.6325e-017
Spine  11.2507 -2.47622 9.58142
Spine1  5.65525 -2.55205 2.56515
HEad  22.3836 2.668 -4.05011
LeftShoulder1  2.07668 -2.28131 -29.8523
LeftArm  41.9186 -28.7628 -36.6429
LeftForeArm  -41.0041 -22.1777 -8.23675
LeftHand  0.593684 1.14821 -16.5364
RightShoulder  9.96863 15.9676 44.7007
RightArm  8.59661 0.461706 15.3898
RightForeArm  -21.1794 43.1813 11.7626
RightHand  1.19381 2.49987 17.2429
LeftUpLeg  -23.3933 16.3046 10.8945
LeftLeg  8.14988 -1.74844 -2.15049
LeftFoot  2.60151 1.12599 -9.32358
LeftToes  -4.9116e-011 5.71383e-011 -3.31847e-011
564
root  21.8203 38.5454 -127.637 -179.476 -29.1941 -179.835
RightUpLeg  -4.57988 3.70559 -10.2869
RightLeg  21.2953 -5.05522 -2.40585
RightFoot  -15.4133 0.464342 15.9259
RightToes  2.91037e-010 0 -3.6325e-017
Spine  11.1537 -2.47756 8.96602
Spine1  5.71308 -2.64968 2.73328
HEad  23.0826 2.1648 -3.23934
LeftShoulder1  2.07096 -2.30924 -29.5772
LeftArm  42.2115 -28.1933 -36.1915
LeftForeArm  -41.8781 -22.253 -8.22986
LeftHand  0.534385 1.52501 -16.4617
RightShoulder  10.1501 16.111 45.2014
RightArm  9.16413 0.602397 15.7559
RightForeArm  -21.3796 42.2168 11.403
RightHand  1.22101 2.65202 17.2903
LeftUpLeg  -22.2551 14.1379 12.3018
LeftLeg  5.58164 1.09709 -2.02301
LeftFoot  2.74151 1.12786 -9.25222
LeftToes  -4.9116e-011 5.71383e-011 -3.31847e-011
565
root  20.5615 38.1788 -128.141 -179.309 -28.8448 179.917
RightUpLeg  -3.62989 4.46507 -11.9649
RightLeg  22.761 -4.71654 -2.39075
RightFoot  -17.3555 0.817512 17.6883
RightToes  2.91037e-010 0 -3.6325e-017
Spine  10.9714 -2.33076 7.95624
Spine1  6.13117 -2.60159 2.75304
HEad  23.399 1.33133 -2.49596
LeftShoulder1  2.05148 -2.27428 -29.4531
LeftArm  42.2642 -28.1492 -36.2481
LeftForeArm  -41.6933 -22.1607 -8.30745
LeftHand  0.529098 1.52253 -16.2926
RightShoulder  10.067 15.9073 45.3085
RightArm  9.70072 0.772385 16.0562
RightForeArm  -22.0581 41.8996 11.3183
RightHand  1.22492 2.5267 17.6282
LeftUpLeg  -22.229 16.3561 10.7862
LeftLeg  8.11763 1.44999 -1.98292
LeftFoot  3.94615 1.35968 -10.29
LeftToes  -4.9116e-011 5.71383e-011 -3.31847e-011
566
root  19.2153 37.8517 -128.491 -178.855 -28.94 178.758
RightUpLeg  -2.84303 5.08457 -14.8534
RightLeg  24.6563 -4.10789 -2.28042
RightFoot  -18.3524 1.14767 20.5771
RightToes  2.91037e-010 0 -3.6325e-017
Spine  11.8002 -2.58053 6.44373
Spine1  6.04576 -2.83113 2.20253
HEad  22.9567 -0.000938073 -2.15211
LeftShoulder1  2.08647 -2.39673 -29.3079
LeftArm  41.438 -28.693 -36.3475
LeftForeArm  -41.3261 -21.6982 -8.74077
LeftHand  0.586372 1.18616 -16.4928
RightShoulder  9.94941 15.734 45.1798
RightArm  10.084 0.933245 16.0718
RightForeArm  -22.5035 41.6591 11.2511
RightHand  1.26509 2.65689 17.9004
LeftUpLeg  -22.2348 16.8888 8.37302
LeftLeg  9.70176 -0.322217 -2.51012
LeftFoot  13.0358 1.86684 -9.00082
LeftToes  -4.9116e-011 5.71383e-011 -3.31847e-011
567
root  18.0944 37.5872 -128.71 -177.479 -27.8053 177.116
RightUpLeg  -5.54767 8.02083 -17.9087
RightLeg  30.1039 -4.36634 -2.96605
RightFoot  -17.415 1.23867 25.2129
RightToes  2.91037e-010 0 -3.6325e-017
Spine  13.4345 -2.06374 3.20203
Spine1  5.9937 -2.61393 2.08975
HEad  22.28 -1.0548 -1.76232
LeftShoulder1  2.13928 -2.4203 -30.0715
LeftArm  38.9732 -30.1202 -36.332
LeftForeArm  -39.186 -20.7592 -9.56012
LeftHand  0.637514 0.722883 -16.0372
RightShoulder  10.1219 16.107 45.0802
RightArm  10.5254 1.87579 15.4768
RightForeArm  -23.2652 41.0516 11.0658
RightHand  1.35717 3.11318 18.1392
LeftUpLeg  -26.4711 23.9661 2.60002
LeftLeg  17.5914 -6.50109 -2.29778
LeftFoot  9.3382 1.08532 -6.25806
LeftToes  -4.9116e-011 5.71383e-011 -3.31847e-011
568
root  17.0152 37.3991 -128.866 -175.774 -26.1299 175.262
RightUpLeg  -11.45 8.61528 -21.2916
RightLeg  39.5106 -5.53371 -5.14236
RightFoot  -12.5795 0.227291 28.4789
RightToes  2.91037e-010 0 -3.6325e-017
Spine  15.3204 -1.59877 0.55066
Spine1  6.05263 -2.25688 1.13422
HEad  20.2247 -1.30213 -1.4595
LeftShoulder1  2.21892 -2.73299 -29.5323
LeftArm  34.0986 -31.6631 -36.7494
LeftForeArm  -35.7474 -19.4764 -10.5994
LeftHand  0.659574 0.534191 -15.9063
RightShoulder  10.5531 17.2499 44.3646
RightArm  10.2658 3.12808 15.7053
RightForeArm  -24.4734 39.522 10.5827
RightHand  1.58156 3.70705 19.7093
LeftUpLeg  -28.7428 26.0029 -0.920628
LeftLeg  22.4147 -6.50013 -2.60151
LeftFoot  5.885 0.740795 -5.12576
LeftToes  -4.9116e-011 5.71383e-011 -3.31847e-011
569
root  15.8852 37.5941 -128.974 -174.542 -22.6835 174.824
RightUpLeg  -20.1274 7.20823 -21.8564
RightLeg  49.3641 -8.69587 -11.0254
RightFoot  -1.56518 -1.11853 12.9029
RightToes  2.91037e-010 0 -3.6325e-017
Spine  16.7021 -0.996886 0.150071
Spine1  6.74465 -1.24406 -0.00560869
HEad  17.7591 -1.34235 -1.94497
LeftShoulder1  2.25815 -2.88618 -29.2903
LeftArm  29.1242 -33.6854 -36.2062
LeftForeArm  -32.2065 -18.1112 -11.6512
LeftHand  0.731404 0.0166014 -15.8377
RightShoulder  11.143 19.013 43.0793
RightArm  10.4939 4.87767 16.0384
RightForeArm  -25.7071 37.7871 10.0572
RightHand  1.86179 4.29662 21.7334
LeftUpLeg  -29.2909 30.2098 -3.39488
LeftLeg  23.5147 -7.08167 -3.02239
LeftFoot  3.73587 0.493598 -3.90111
LeftToes  -4.9116e-011 5.71383e-011 -3.31847e-011
570
root  14.8478 37.6577 -129.008 -173.599 -21.4438 174.469
RightUpLeg  -25.7862 2.72902 -20.8716
RightLeg  53.7597 -7.65988 -11.4394
RightFoot  -1.26192 -0.989226 11.0868
RightToes  2.91037e-010 0 -3.6325e-017
Spine  19.2119 -1.40112 -0.243569
Spine1  6.45306 -1.47185 -0.52105
HEad  15.657 -0.107784 -2.08496
LeftShoulder1  2.27099 -3.01256 -28.7928
LeftArm  24.6276 -35.4105 -35.6523
LeftForeArm  -29.5868 -17.1856 -12.2517
LeftHand  0.749633 -0.14611 -15.7288
RightShoulder  11.6095 20.5945 41.8253
RightArm  10.953 7.50751 16.1846
RightForeArm  -28.4033 36.07 9.6266
RightHand  2.02549 4.14714 23.9861
LeftUpLeg  -30.0784 30.7371 -5.39387
LeftLeg  24.9832 -6.3463 -2.86957
LeftFoot  1.57827 0.330054 -2.99988
LeftToes  -4.9116e-011 5.71383e-011 -3.31847e-011
571
root  13.8498 37.8214 -129.062 -172.357 -20.6475 174.314
RightUpLeg  -30.4182 -2.85942 -17.6641
RightLeg  53.2015 -5.84232 -8.69731
RightFoot  -3.10101 -0.835943 11.276
RightToes  2.91037e-010 0 -3.6325e-017
Spine  21.2355 -1.88451 -0.173261
Spine1  6.53195 -1.79119 -0.45994
HEad  12.8138 0.442923 -2.19751
LeftShoulder1  2.3016 -3.16474 -28.4499
LeftArm  20.5269 -37.8281 -35.1433
LeftForeArm  -26.8815 -15.9403 -13.0962
LeftHand  0.789534 -0.344348 -15.9584
RightShoulder  11.8939 22.0945 40.1766
RightArm  10.5694 10.3784 16.5321
RightForeArm  -30.0448 33.9255 9.0466
RightHand  2.21537 4.51808 25.2055
LeftUpLeg  -30.6597 30.9688 -7.44961
LeftLeg  24.9895 -5.89777 -2.64257
LeftFoot  0.0745369 0.230961 -2.31578
LeftToes  -4.9116e-011 5.71383e-011 -3.31847e-011
